<svg width="265" height="64" viewBox="0 0 265 64" fill="none" xmlns="http://www.w3.org/2000/svg">
<g filter="url(#filter0_d_56_11)">
<path d="M4 27.8201C4 12.4555 16.4555 0 31.8201 0H228.5C246.449 0 261 14.5508 261 32.5V55.6403H31.8201C16.4555 55.6403 4 43.1848 4 27.8201Z" fill="#46B8C8"/>
</g>
<path d="M29.5879 20.2788V21.6392H24.3037V20.2788H29.5879ZM24.7275 16.1226V26.0757H23.0117V16.1226H24.7275ZM30.9072 16.1226V26.0757H29.1982V16.1226H30.9072ZM34.5508 18.6792V26.0757H32.8965V18.6792H34.5508ZM32.7871 16.7378C32.7871 16.4871 32.8691 16.2798 33.0332 16.1157C33.2018 15.9471 33.4342 15.8628 33.7305 15.8628C34.0221 15.8628 34.2523 15.9471 34.4209 16.1157C34.5895 16.2798 34.6738 16.4871 34.6738 16.7378C34.6738 16.9839 34.5895 17.189 34.4209 17.353C34.2523 17.5171 34.0221 17.5991 33.7305 17.5991C33.4342 17.5991 33.2018 17.5171 33.0332 17.353C32.8691 17.189 32.7871 16.9839 32.7871 16.7378ZM38.2559 16.1226L38.0918 23.1431H36.6836L36.5127 16.1226H38.2559ZM36.4648 25.2964C36.4648 25.0457 36.5469 24.8361 36.7109 24.6675C36.8796 24.4943 37.112 24.4077 37.4082 24.4077C37.6999 24.4077 37.93 24.4943 38.0986 24.6675C38.2673 24.8361 38.3516 25.0457 38.3516 25.2964C38.3516 25.5379 38.2673 25.7453 38.0986 25.9185C37.93 26.0871 37.6999 26.1714 37.4082 26.1714C37.112 26.1714 36.8796 26.0871 36.7109 25.9185C36.5469 25.7453 36.4648 25.5379 36.4648 25.2964ZM45.543 16.1226V26.0757H43.8271V16.1226H45.543ZM55.168 24.5923V21.0649C55.168 20.8006 55.1201 20.5728 55.0244 20.3813C54.9287 20.1899 54.7829 20.0418 54.5869 19.937C54.3955 19.8322 54.154 19.7798 53.8623 19.7798C53.5934 19.7798 53.361 19.8254 53.165 19.9165C52.9691 20.0076 52.8164 20.1307 52.707 20.2856C52.5977 20.4406 52.543 20.616 52.543 20.812H50.9023C50.9023 20.5203 50.973 20.2378 51.1143 19.9644C51.2555 19.6909 51.4606 19.4471 51.7295 19.2329C51.9984 19.0187 52.3197 18.8501 52.6934 18.7271C53.0671 18.604 53.4863 18.5425 53.9512 18.5425C54.5072 18.5425 54.9993 18.6359 55.4277 18.8228C55.8607 19.0096 56.2002 19.2922 56.4463 19.6704C56.6969 20.0441 56.8223 20.5135 56.8223 21.0786V24.3667C56.8223 24.7039 56.8451 25.007 56.8906 25.2759C56.9408 25.5402 57.0114 25.7703 57.1025 25.9663V26.0757H55.4141C55.3366 25.8979 55.2751 25.6724 55.2295 25.3989C55.1885 25.1209 55.168 24.8521 55.168 24.5923ZM55.4072 21.5776L55.4209 22.5962H54.2383C53.9329 22.5962 53.6641 22.6258 53.4316 22.6851C53.1992 22.7397 53.0055 22.8218 52.8506 22.9312C52.6956 23.0405 52.5794 23.1727 52.502 23.3276C52.4245 23.4826 52.3857 23.658 52.3857 23.854C52.3857 24.05 52.4313 24.23 52.5225 24.394C52.6136 24.5535 52.7458 24.6789 52.9189 24.77C53.0967 24.8612 53.3109 24.9067 53.5615 24.9067C53.8988 24.9067 54.1927 24.8384 54.4434 24.7017C54.6986 24.5604 54.8991 24.3895 55.0449 24.189C55.1908 23.9839 55.2682 23.7902 55.2773 23.6079L55.8105 24.3394C55.7559 24.5262 55.6624 24.7267 55.5303 24.9409C55.3981 25.1551 55.2249 25.3602 55.0107 25.5562C54.8011 25.7476 54.5482 25.9048 54.252 26.0278C53.9603 26.1509 53.623 26.2124 53.2402 26.2124C52.7572 26.2124 52.3265 26.1167 51.9482 25.9253C51.57 25.7293 51.2738 25.4673 51.0596 25.1392C50.8454 24.8065 50.7383 24.4305 50.7383 24.0112C50.7383 23.6193 50.8112 23.2729 50.957 22.9722C51.1074 22.6668 51.3262 22.4116 51.6133 22.2065C51.9049 22.0015 52.2604 21.8465 52.6797 21.7417C53.099 21.6323 53.5775 21.5776 54.1152 21.5776H55.4072ZM60.1924 20.1831V26.0757H58.5449V18.6792H60.0967L60.1924 20.1831ZM59.9258 22.104L59.3652 22.0972C59.3652 21.5868 59.429 21.1151 59.5566 20.6821C59.6842 20.2492 59.8711 19.8732 60.1172 19.5542C60.3633 19.2306 60.6686 18.9823 61.0332 18.8091C61.4023 18.6313 61.8285 18.5425 62.3115 18.5425C62.6488 18.5425 62.9564 18.5926 63.2344 18.6929C63.5169 18.7886 63.7607 18.9412 63.9658 19.1509C64.1755 19.3605 64.335 19.6294 64.4443 19.9575C64.5583 20.2856 64.6152 20.6821 64.6152 21.147V26.0757H62.9678V21.2905C62.9678 20.9305 62.9131 20.6479 62.8037 20.4429C62.6989 20.2378 62.5462 20.092 62.3457 20.0054C62.1497 19.9142 61.915 19.8687 61.6416 19.8687C61.3317 19.8687 61.0674 19.9279 60.8486 20.0464C60.6344 20.1649 60.459 20.3267 60.3223 20.5317C60.1855 20.7368 60.0853 20.9738 60.0215 21.2427C59.9577 21.5116 59.9258 21.7987 59.9258 22.104ZM64.5127 21.6665L63.7402 21.8374C63.7402 21.3908 63.8018 20.9692 63.9248 20.5728C64.0524 20.1717 64.237 19.8208 64.4785 19.52C64.7246 19.2147 65.0277 18.9754 65.3877 18.8022C65.7477 18.6291 66.1602 18.5425 66.625 18.5425C67.0033 18.5425 67.3405 18.5949 67.6367 18.6997C67.9375 18.8 68.1927 18.9595 68.4023 19.1782C68.612 19.397 68.7715 19.6818 68.8809 20.0327C68.9902 20.3791 69.0449 20.7983 69.0449 21.2905V26.0757H67.3906V21.2837C67.3906 20.91 67.3359 20.6206 67.2266 20.4155C67.1217 20.2104 66.9714 20.0692 66.7754 19.9917C66.5794 19.9097 66.3447 19.8687 66.0713 19.8687C65.8161 19.8687 65.5905 19.9165 65.3945 20.0122C65.2031 20.1034 65.0413 20.2332 64.9092 20.4019C64.777 20.5659 64.6768 20.755 64.6084 20.9692C64.5446 21.1834 64.5127 21.4159 64.5127 21.6665ZM78.123 21.5776H75.5869L75.5732 20.3267H77.7881C78.1618 20.3267 78.4785 20.272 78.7383 20.1626C79.0026 20.0487 79.2031 19.8869 79.3398 19.6772C79.4766 19.4631 79.5449 19.2056 79.5449 18.9048C79.5449 18.5721 79.4811 18.3009 79.3535 18.0913C79.2259 17.8817 79.0299 17.729 78.7656 17.6333C78.5059 17.5376 78.1732 17.4897 77.7676 17.4897H76.1064V26.0757H74.3906V16.1226H77.7676C78.3145 16.1226 78.8021 16.175 79.2305 16.2798C79.6634 16.3846 80.0303 16.5487 80.3311 16.772C80.6364 16.9907 80.8665 17.2687 81.0215 17.606C81.181 17.9432 81.2607 18.3442 81.2607 18.8091C81.2607 19.2192 81.1628 19.5952 80.9668 19.937C80.7708 20.2743 80.4814 20.55 80.0986 20.7642C79.7158 20.9784 79.2396 21.106 78.6699 21.147L78.123 21.5776ZM78.0479 26.0757H75.0469L75.8193 24.7153H78.0479C78.4352 24.7153 78.7588 24.6515 79.0186 24.5239C79.2783 24.3918 79.472 24.2118 79.5996 23.9839C79.7318 23.7515 79.7979 23.4803 79.7979 23.1704C79.7979 22.8468 79.7409 22.5666 79.627 22.3296C79.513 22.0881 79.333 21.9035 79.0869 21.7759C78.8408 21.6437 78.5195 21.5776 78.123 21.5776H76.1953L76.209 20.3267H78.7178L79.1074 20.7983C79.6543 20.8166 80.1032 20.9373 80.4541 21.1606C80.8096 21.384 81.0739 21.6733 81.2471 22.0288C81.4202 22.3843 81.5068 22.7671 81.5068 23.1772C81.5068 23.8107 81.3678 24.3416 81.0898 24.77C80.8164 25.1984 80.4222 25.5243 79.9072 25.7476C79.3923 25.9663 78.7725 26.0757 78.0479 26.0757ZM86.333 26.2124C85.7861 26.2124 85.2917 26.1235 84.8496 25.9458C84.4121 25.7635 84.0384 25.5106 83.7285 25.187C83.4232 24.8634 83.1885 24.4829 83.0244 24.0454C82.8604 23.6079 82.7783 23.1362 82.7783 22.6304V22.3569C82.7783 21.7782 82.8626 21.2541 83.0312 20.7847C83.1999 20.3153 83.4346 19.9142 83.7354 19.5815C84.0361 19.2443 84.3916 18.9868 84.8018 18.8091C85.2119 18.6313 85.6562 18.5425 86.1348 18.5425C86.6634 18.5425 87.126 18.6313 87.5225 18.8091C87.9189 18.9868 88.2471 19.2375 88.5068 19.561C88.7712 19.88 88.9671 20.2606 89.0947 20.7026C89.2269 21.1447 89.293 21.6323 89.293 22.1655V22.8696H83.5781V21.687H87.666V21.5571C87.6569 21.2609 87.5977 20.9829 87.4883 20.7231C87.3835 20.4634 87.2217 20.2537 87.0029 20.0942C86.7842 19.9347 86.4925 19.855 86.1279 19.855C85.8545 19.855 85.6107 19.9142 85.3965 20.0327C85.1868 20.1466 85.0114 20.313 84.8701 20.5317C84.7288 20.7505 84.6195 21.0148 84.542 21.3247C84.4691 21.63 84.4326 21.9741 84.4326 22.3569V22.6304C84.4326 22.9539 84.4759 23.2547 84.5625 23.5327C84.6536 23.8062 84.7858 24.0454 84.959 24.2505C85.1322 24.4556 85.3418 24.6174 85.5879 24.7358C85.834 24.8498 86.1143 24.9067 86.4287 24.9067C86.8252 24.9067 87.1784 24.827 87.4883 24.6675C87.7982 24.508 88.0671 24.2824 88.2949 23.9907L89.1631 24.8315C89.0036 25.064 88.7962 25.2873 88.541 25.5015C88.2858 25.7111 87.9736 25.882 87.6045 26.0142C87.2399 26.1463 86.8161 26.2124 86.333 26.2124ZM92.2119 20.2583V26.0757H90.5645V18.6792H92.1162L92.2119 20.2583ZM91.918 22.104L91.3848 22.0972C91.3893 21.5731 91.4622 21.0923 91.6035 20.6548C91.7493 20.2173 91.9499 19.8413 92.2051 19.5269C92.4648 19.2124 92.7747 18.9709 93.1348 18.8022C93.4948 18.6291 93.8958 18.5425 94.3379 18.5425C94.6934 18.5425 95.0146 18.5926 95.3018 18.6929C95.5934 18.7886 95.8418 18.9458 96.0469 19.1646C96.2565 19.3833 96.416 19.6681 96.5254 20.019C96.6348 20.3654 96.6895 20.7915 96.6895 21.2974V26.0757H95.0352V21.2905C95.0352 20.9351 94.9827 20.6548 94.8779 20.4497C94.7777 20.2401 94.6296 20.092 94.4336 20.0054C94.2422 19.9142 94.0029 19.8687 93.7158 19.8687C93.4333 19.8687 93.1803 19.9279 92.957 20.0464C92.7337 20.1649 92.5446 20.3267 92.3896 20.5317C92.2393 20.7368 92.123 20.9738 92.041 21.2427C91.959 21.5116 91.918 21.7987 91.918 22.104ZM99.916 24.4897L99.9092 25.6655C99.9092 26.1304 99.793 26.6089 99.5605 27.1011C99.3281 27.5933 99.0205 27.9989 98.6377 28.3179L97.7559 27.8052C97.8835 27.6001 97.9997 27.3927 98.1045 27.1831C98.2093 26.9735 98.2936 26.7502 98.3574 26.5132C98.4212 26.2762 98.4531 26.0142 98.4531 25.7271V24.4897H99.916ZM107.135 25.269L109.145 18.6792H110.908L107.941 27.2036C107.873 27.3859 107.784 27.5841 107.675 27.7983C107.565 28.0125 107.422 28.2153 107.244 28.4067C107.071 28.6027 106.854 28.7599 106.595 28.8784C106.335 29.0015 106.021 29.063 105.651 29.063C105.506 29.063 105.364 29.0493 105.228 29.022C105.095 28.9992 104.97 28.9741 104.852 28.9468L104.845 27.689C104.89 27.6935 104.945 27.6981 105.009 27.7026C105.077 27.7072 105.132 27.7095 105.173 27.7095C105.446 27.7095 105.674 27.6753 105.856 27.6069C106.039 27.5431 106.187 27.4383 106.301 27.2925C106.419 27.1466 106.52 26.9507 106.602 26.7046L107.135 25.269ZM106 18.6792L107.757 24.2163L108.051 25.9526L106.909 26.2466L104.223 18.6792H106ZM111.428 22.4595V22.3022C111.428 21.769 111.505 21.2746 111.66 20.8188C111.815 20.3586 112.038 19.9598 112.33 19.6226C112.626 19.2808 112.986 19.0164 113.41 18.8296C113.839 18.6382 114.322 18.5425 114.859 18.5425C115.402 18.5425 115.885 18.6382 116.309 18.8296C116.737 19.0164 117.099 19.2808 117.396 19.6226C117.692 19.9598 117.917 20.3586 118.072 20.8188C118.227 21.2746 118.305 21.769 118.305 22.3022V22.4595C118.305 22.9927 118.227 23.4871 118.072 23.9429C117.917 24.3986 117.692 24.7974 117.396 25.1392C117.099 25.4764 116.739 25.7407 116.315 25.9321C115.892 26.119 115.411 26.2124 114.873 26.2124C114.331 26.2124 113.845 26.119 113.417 25.9321C112.993 25.7407 112.633 25.4764 112.337 25.1392C112.041 24.7974 111.815 24.3986 111.66 23.9429C111.505 23.4871 111.428 22.9927 111.428 22.4595ZM113.075 22.3022V22.4595C113.075 22.7922 113.109 23.1066 113.178 23.4028C113.246 23.6991 113.353 23.9588 113.499 24.1821C113.645 24.4054 113.832 24.5809 114.06 24.7085C114.287 24.8361 114.559 24.8999 114.873 24.8999C115.178 24.8999 115.443 24.8361 115.666 24.7085C115.894 24.5809 116.081 24.4054 116.227 24.1821C116.372 23.9588 116.479 23.6991 116.548 23.4028C116.621 23.1066 116.657 22.7922 116.657 22.4595V22.3022C116.657 21.9741 116.621 21.6642 116.548 21.3726C116.479 21.0763 116.37 20.8143 116.22 20.5864C116.074 20.3586 115.887 20.1808 115.659 20.0532C115.436 19.9211 115.169 19.855 114.859 19.855C114.549 19.855 114.281 19.9211 114.053 20.0532C113.829 20.1808 113.645 20.3586 113.499 20.5864C113.353 20.8143 113.246 21.0763 113.178 21.3726C113.109 21.6642 113.075 21.9741 113.075 22.3022ZM124.136 24.3325V18.6792H125.79V26.0757H124.231L124.136 24.3325ZM124.368 22.7944L124.922 22.7808C124.922 23.2775 124.867 23.7355 124.758 24.1548C124.648 24.5695 124.48 24.9318 124.252 25.2417C124.024 25.547 123.732 25.7863 123.377 25.9595C123.021 26.1281 122.595 26.2124 122.099 26.2124C121.739 26.2124 121.408 26.16 121.107 26.0552C120.807 25.9504 120.547 25.7886 120.328 25.5698C120.114 25.3511 119.948 25.0662 119.829 24.7153C119.711 24.3644 119.651 23.9451 119.651 23.4575V18.6792H121.299V23.4712C121.299 23.7401 121.331 23.9657 121.395 24.1479C121.458 24.3257 121.545 24.4692 121.654 24.5786C121.764 24.688 121.891 24.7655 122.037 24.811C122.183 24.8566 122.338 24.8794 122.502 24.8794C122.971 24.8794 123.34 24.7882 123.609 24.606C123.883 24.4191 124.076 24.1685 124.19 23.854C124.309 23.5396 124.368 23.1864 124.368 22.7944ZM129.133 20.0874V26.0757H127.485V18.6792H129.058L129.133 20.0874ZM131.396 18.6313L131.382 20.1626C131.282 20.1444 131.172 20.1307 131.054 20.1216C130.94 20.1125 130.826 20.1079 130.712 20.1079C130.429 20.1079 130.181 20.1489 129.967 20.231C129.753 20.3084 129.573 20.4224 129.427 20.5728C129.285 20.7186 129.176 20.8963 129.099 21.106C129.021 21.3156 128.976 21.5503 128.962 21.8101L128.586 21.8374C128.586 21.3726 128.632 20.9419 128.723 20.5454C128.814 20.1489 128.951 19.8003 129.133 19.4995C129.32 19.1987 129.552 18.964 129.83 18.7954C130.113 18.6268 130.438 18.5425 130.808 18.5425C130.908 18.5425 131.015 18.5516 131.129 18.5698C131.247 18.5881 131.336 18.6086 131.396 18.6313ZM138.32 24.77L140.132 18.6792H141.841L139.271 26.0757H138.204L138.32 24.77ZM136.933 18.6792L138.778 24.7974L138.867 26.0757H137.801L135.217 18.6792H136.933ZM144.623 18.6792V26.0757H142.969V18.6792H144.623ZM142.859 16.7378C142.859 16.4871 142.941 16.2798 143.105 16.1157C143.274 15.9471 143.507 15.8628 143.803 15.8628C144.094 15.8628 144.325 15.9471 144.493 16.1157C144.662 16.2798 144.746 16.4871 144.746 16.7378C144.746 16.9839 144.662 17.189 144.493 17.353C144.325 17.5171 144.094 17.5991 143.803 17.5991C143.507 17.5991 143.274 17.5171 143.105 17.353C142.941 17.189 142.859 16.9839 142.859 16.7378ZM148.082 20.0874V26.0757H146.435V18.6792H148.007L148.082 20.0874ZM150.345 18.6313L150.331 20.1626C150.231 20.1444 150.121 20.1307 150.003 20.1216C149.889 20.1125 149.775 20.1079 149.661 20.1079C149.379 20.1079 149.13 20.1489 148.916 20.231C148.702 20.3084 148.522 20.4224 148.376 20.5728C148.235 20.7186 148.125 20.8963 148.048 21.106C147.97 21.3156 147.925 21.5503 147.911 21.8101L147.535 21.8374C147.535 21.3726 147.581 20.9419 147.672 20.5454C147.763 20.1489 147.9 19.8003 148.082 19.4995C148.269 19.1987 148.501 18.964 148.779 18.7954C149.062 18.6268 149.388 18.5425 149.757 18.5425C149.857 18.5425 149.964 18.5516 150.078 18.5698C150.197 18.5881 150.285 18.6086 150.345 18.6313ZM155.109 18.6792V19.8823H150.939V18.6792H155.109ZM152.143 16.8677H153.79V24.0317C153.79 24.2596 153.822 24.4351 153.886 24.5581C153.954 24.6766 154.048 24.7563 154.166 24.7974C154.285 24.8384 154.424 24.8589 154.583 24.8589C154.697 24.8589 154.806 24.8521 154.911 24.8384C155.016 24.8247 155.1 24.811 155.164 24.7974L155.171 26.0552C155.034 26.0962 154.875 26.1326 154.692 26.1646C154.515 26.1965 154.31 26.2124 154.077 26.2124C153.699 26.2124 153.364 26.1463 153.072 26.0142C152.781 25.8774 152.553 25.6564 152.389 25.3511C152.225 25.0457 152.143 24.6401 152.143 24.1343V16.8677ZM160.831 24.3325V18.6792H162.485V26.0757H160.927L160.831 24.3325ZM161.063 22.7944L161.617 22.7808C161.617 23.2775 161.562 23.7355 161.453 24.1548C161.344 24.5695 161.175 24.9318 160.947 25.2417C160.719 25.547 160.428 25.7863 160.072 25.9595C159.717 26.1281 159.291 26.2124 158.794 26.2124C158.434 26.2124 158.104 26.16 157.803 26.0552C157.502 25.9504 157.242 25.7886 157.023 25.5698C156.809 25.3511 156.643 25.0662 156.524 24.7153C156.406 24.3644 156.347 23.9451 156.347 23.4575V18.6792H157.994V23.4712C157.994 23.7401 158.026 23.9657 158.09 24.1479C158.154 24.3257 158.24 24.4692 158.35 24.5786C158.459 24.688 158.587 24.7655 158.732 24.811C158.878 24.8566 159.033 24.8794 159.197 24.8794C159.667 24.8794 160.036 24.7882 160.305 24.606C160.578 24.4191 160.772 24.1685 160.886 23.854C161.004 23.5396 161.063 23.1864 161.063 22.7944ZM168.344 24.5923V21.0649C168.344 20.8006 168.296 20.5728 168.2 20.3813C168.104 20.1899 167.959 20.0418 167.763 19.937C167.571 19.8322 167.33 19.7798 167.038 19.7798C166.769 19.7798 166.537 19.8254 166.341 19.9165C166.145 20.0076 165.992 20.1307 165.883 20.2856C165.773 20.4406 165.719 20.616 165.719 20.812H164.078C164.078 20.5203 164.149 20.2378 164.29 19.9644C164.431 19.6909 164.636 19.4471 164.905 19.2329C165.174 19.0187 165.495 18.8501 165.869 18.7271C166.243 18.604 166.662 18.5425 167.127 18.5425C167.683 18.5425 168.175 18.6359 168.604 18.8228C169.036 19.0096 169.376 19.2922 169.622 19.6704C169.873 20.0441 169.998 20.5135 169.998 21.0786V24.3667C169.998 24.7039 170.021 25.007 170.066 25.2759C170.117 25.5402 170.187 25.7703 170.278 25.9663V26.0757H168.59C168.512 25.8979 168.451 25.6724 168.405 25.3989C168.364 25.1209 168.344 24.8521 168.344 24.5923ZM168.583 21.5776L168.597 22.5962H167.414C167.109 22.5962 166.84 22.6258 166.607 22.6851C166.375 22.7397 166.181 22.8218 166.026 22.9312C165.871 23.0405 165.755 23.1727 165.678 23.3276C165.6 23.4826 165.562 23.658 165.562 23.854C165.562 24.05 165.607 24.23 165.698 24.394C165.789 24.5535 165.922 24.6789 166.095 24.77C166.272 24.8612 166.487 24.9067 166.737 24.9067C167.075 24.9067 167.368 24.8384 167.619 24.7017C167.874 24.5604 168.075 24.3895 168.221 24.189C168.367 23.9839 168.444 23.7902 168.453 23.6079L168.986 24.3394C168.932 24.5262 168.838 24.7267 168.706 24.9409C168.574 25.1551 168.401 25.3602 168.187 25.5562C167.977 25.7476 167.724 25.9048 167.428 26.0278C167.136 26.1509 166.799 26.2124 166.416 26.2124C165.933 26.2124 165.502 26.1167 165.124 25.9253C164.746 25.7293 164.45 25.4673 164.235 25.1392C164.021 24.8065 163.914 24.4305 163.914 24.0112C163.914 23.6193 163.987 23.2729 164.133 22.9722C164.283 22.6668 164.502 22.4116 164.789 22.2065C165.081 22.0015 165.436 21.8465 165.855 21.7417C166.275 21.6323 166.753 21.5776 167.291 21.5776H168.583ZM173.484 15.5757V26.0757H171.83V15.5757H173.484ZM182.945 24.5923V21.0649C182.945 20.8006 182.897 20.5728 182.802 20.3813C182.706 20.1899 182.56 20.0418 182.364 19.937C182.173 19.8322 181.931 19.7798 181.64 19.7798C181.371 19.7798 181.138 19.8254 180.942 19.9165C180.746 20.0076 180.594 20.1307 180.484 20.2856C180.375 20.4406 180.32 20.616 180.32 20.812H178.68C178.68 20.5203 178.75 20.2378 178.892 19.9644C179.033 19.6909 179.238 19.4471 179.507 19.2329C179.776 19.0187 180.097 18.8501 180.471 18.7271C180.844 18.604 181.264 18.5425 181.729 18.5425C182.285 18.5425 182.777 18.6359 183.205 18.8228C183.638 19.0096 183.978 19.2922 184.224 19.6704C184.474 20.0441 184.6 20.5135 184.6 21.0786V24.3667C184.6 24.7039 184.622 25.007 184.668 25.2759C184.718 25.5402 184.789 25.7703 184.88 25.9663V26.0757H183.191C183.114 25.8979 183.052 25.6724 183.007 25.3989C182.966 25.1209 182.945 24.8521 182.945 24.5923ZM183.185 21.5776L183.198 22.5962H182.016C181.71 22.5962 181.441 22.6258 181.209 22.6851C180.977 22.7397 180.783 22.8218 180.628 22.9312C180.473 23.0405 180.357 23.1727 180.279 23.3276C180.202 23.4826 180.163 23.658 180.163 23.854C180.163 24.05 180.209 24.23 180.3 24.394C180.391 24.5535 180.523 24.6789 180.696 24.77C180.874 24.8612 181.088 24.9067 181.339 24.9067C181.676 24.9067 181.97 24.8384 182.221 24.7017C182.476 24.5604 182.676 24.3895 182.822 24.189C182.968 23.9839 183.046 23.7902 183.055 23.6079L183.588 24.3394C183.533 24.5262 183.44 24.7267 183.308 24.9409C183.175 25.1551 183.002 25.3602 182.788 25.5562C182.578 25.7476 182.326 25.9048 182.029 26.0278C181.738 26.1509 181.4 26.2124 181.018 26.2124C180.535 26.2124 180.104 26.1167 179.726 25.9253C179.347 25.7293 179.051 25.4673 178.837 25.1392C178.623 24.8065 178.516 24.4305 178.516 24.0112C178.516 23.6193 178.589 23.2729 178.734 22.9722C178.885 22.6668 179.104 22.4116 179.391 22.2065C179.682 22.0015 180.038 21.8465 180.457 21.7417C180.876 21.6323 181.355 21.5776 181.893 21.5776H183.185ZM190.472 24.0728C190.472 23.9087 190.431 23.7606 190.349 23.6284C190.267 23.4917 190.109 23.3687 189.877 23.2593C189.649 23.1499 189.312 23.0496 188.865 22.9585C188.473 22.8719 188.113 22.7694 187.785 22.6509C187.462 22.5278 187.184 22.3797 186.951 22.2065C186.719 22.0334 186.539 21.8283 186.411 21.5913C186.284 21.3543 186.22 21.0809 186.22 20.771C186.22 20.4702 186.286 20.1854 186.418 19.9165C186.55 19.6476 186.739 19.4106 186.985 19.2056C187.231 19.0005 187.53 18.8387 187.881 18.7202C188.236 18.6017 188.633 18.5425 189.07 18.5425C189.69 18.5425 190.221 18.6473 190.663 18.8569C191.11 19.062 191.451 19.3423 191.688 19.6978C191.925 20.0487 192.044 20.4451 192.044 20.8872H190.396C190.396 20.6912 190.346 20.509 190.246 20.3403C190.15 20.1672 190.005 20.0282 189.809 19.9233C189.613 19.814 189.367 19.7593 189.07 19.7593C188.788 19.7593 188.553 19.8049 188.366 19.896C188.184 19.9826 188.047 20.0965 187.956 20.2378C187.869 20.3791 187.826 20.534 187.826 20.7026C187.826 20.8257 187.849 20.9373 187.895 21.0376C187.945 21.1333 188.027 21.2222 188.141 21.3042C188.255 21.3817 188.41 21.4546 188.605 21.5229C188.806 21.5913 189.057 21.6574 189.357 21.7212C189.923 21.8397 190.408 21.9924 190.813 22.1792C191.224 22.3615 191.538 22.5985 191.757 22.8901C191.976 23.1772 192.085 23.5418 192.085 23.9839C192.085 24.312 192.014 24.6128 191.873 24.8862C191.736 25.1551 191.536 25.3898 191.271 25.5903C191.007 25.7863 190.69 25.939 190.321 26.0483C189.957 26.1577 189.547 26.2124 189.091 26.2124C188.421 26.2124 187.854 26.0939 187.389 25.8569C186.924 25.6154 186.571 25.3078 186.329 24.9341C186.092 24.5558 185.974 24.1639 185.974 23.7583H187.566C187.585 24.0636 187.669 24.3075 187.819 24.4897C187.974 24.6675 188.166 24.7974 188.394 24.8794C188.626 24.9569 188.865 24.9956 189.111 24.9956C189.408 24.9956 189.656 24.9569 189.856 24.8794C190.057 24.7974 190.21 24.688 190.314 24.5513C190.419 24.41 190.472 24.2505 190.472 24.0728ZM197.677 24.0728C197.677 23.9087 197.636 23.7606 197.554 23.6284C197.472 23.4917 197.314 23.3687 197.082 23.2593C196.854 23.1499 196.517 23.0496 196.07 22.9585C195.678 22.8719 195.318 22.7694 194.99 22.6509C194.667 22.5278 194.389 22.3797 194.156 22.2065C193.924 22.0334 193.744 21.8283 193.616 21.5913C193.489 21.3543 193.425 21.0809 193.425 20.771C193.425 20.4702 193.491 20.1854 193.623 19.9165C193.755 19.6476 193.944 19.4106 194.19 19.2056C194.437 19.0005 194.735 18.8387 195.086 18.7202C195.441 18.6017 195.838 18.5425 196.275 18.5425C196.895 18.5425 197.426 18.6473 197.868 18.8569C198.315 19.062 198.657 19.3423 198.894 19.6978C199.131 20.0487 199.249 20.4451 199.249 20.8872H197.602C197.602 20.6912 197.551 20.509 197.451 20.3403C197.355 20.1672 197.21 20.0282 197.014 19.9233C196.818 19.814 196.572 19.7593 196.275 19.7593C195.993 19.7593 195.758 19.8049 195.571 19.896C195.389 19.9826 195.252 20.0965 195.161 20.2378C195.075 20.3791 195.031 20.534 195.031 20.7026C195.031 20.8257 195.054 20.9373 195.1 21.0376C195.15 21.1333 195.232 21.2222 195.346 21.3042C195.46 21.3817 195.615 21.4546 195.811 21.5229C196.011 21.5913 196.262 21.6574 196.562 21.7212C197.128 21.8397 197.613 21.9924 198.019 22.1792C198.429 22.3615 198.743 22.5985 198.962 22.8901C199.181 23.1772 199.29 23.5418 199.29 23.9839C199.29 24.312 199.219 24.6128 199.078 24.8862C198.941 25.1551 198.741 25.3898 198.477 25.5903C198.212 25.7863 197.896 25.939 197.526 26.0483C197.162 26.1577 196.752 26.2124 196.296 26.2124C195.626 26.2124 195.059 26.0939 194.594 25.8569C194.129 25.6154 193.776 25.3078 193.534 24.9341C193.297 24.5558 193.179 24.1639 193.179 23.7583H194.771C194.79 24.0636 194.874 24.3075 195.024 24.4897C195.179 24.6675 195.371 24.7974 195.599 24.8794C195.831 24.9569 196.07 24.9956 196.316 24.9956C196.613 24.9956 196.861 24.9569 197.062 24.8794C197.262 24.7974 197.415 24.688 197.52 24.5513C197.624 24.41 197.677 24.2505 197.677 24.0728ZM202.496 18.6792V26.0757H200.842V18.6792H202.496ZM200.732 16.7378C200.732 16.4871 200.814 16.2798 200.979 16.1157C201.147 15.9471 201.38 15.8628 201.676 15.8628C201.967 15.8628 202.198 15.9471 202.366 16.1157C202.535 16.2798 202.619 16.4871 202.619 16.7378C202.619 16.9839 202.535 17.189 202.366 17.353C202.198 17.5171 201.967 17.5991 201.676 17.5991C201.38 17.5991 201.147 17.5171 200.979 17.353C200.814 17.189 200.732 16.9839 200.732 16.7378ZM208.45 24.0728C208.45 23.9087 208.409 23.7606 208.327 23.6284C208.245 23.4917 208.088 23.3687 207.855 23.2593C207.628 23.1499 207.29 23.0496 206.844 22.9585C206.452 22.8719 206.092 22.7694 205.764 22.6509C205.44 22.5278 205.162 22.3797 204.93 22.2065C204.697 22.0334 204.517 21.8283 204.39 21.5913C204.262 21.3543 204.198 21.0809 204.198 20.771C204.198 20.4702 204.264 20.1854 204.396 19.9165C204.529 19.6476 204.718 19.4106 204.964 19.2056C205.21 19.0005 205.508 18.8387 205.859 18.7202C206.215 18.6017 206.611 18.5425 207.049 18.5425C207.669 18.5425 208.2 18.6473 208.642 18.8569C209.088 19.062 209.43 19.3423 209.667 19.6978C209.904 20.0487 210.022 20.4451 210.022 20.8872H208.375C208.375 20.6912 208.325 20.509 208.225 20.3403C208.129 20.1672 207.983 20.0282 207.787 19.9233C207.591 19.814 207.345 19.7593 207.049 19.7593C206.766 19.7593 206.532 19.8049 206.345 19.896C206.162 19.9826 206.026 20.0965 205.935 20.2378C205.848 20.3791 205.805 20.534 205.805 20.7026C205.805 20.8257 205.827 20.9373 205.873 21.0376C205.923 21.1333 206.005 21.2222 206.119 21.3042C206.233 21.3817 206.388 21.4546 206.584 21.5229C206.785 21.5913 207.035 21.6574 207.336 21.7212C207.901 21.8397 208.386 21.9924 208.792 22.1792C209.202 22.3615 209.517 22.5985 209.735 22.8901C209.954 23.1772 210.063 23.5418 210.063 23.9839C210.063 24.312 209.993 24.6128 209.852 24.8862C209.715 25.1551 209.514 25.3898 209.25 25.5903C208.986 25.7863 208.669 25.939 208.3 26.0483C207.935 26.1577 207.525 26.2124 207.069 26.2124C206.399 26.2124 205.832 26.0939 205.367 25.8569C204.902 25.6154 204.549 25.3078 204.308 24.9341C204.071 24.5558 203.952 24.1639 203.952 23.7583H205.545C205.563 24.0636 205.647 24.3075 205.798 24.4897C205.953 24.6675 206.144 24.7974 206.372 24.8794C206.604 24.9569 206.844 24.9956 207.09 24.9956C207.386 24.9956 207.634 24.9569 207.835 24.8794C208.035 24.7974 208.188 24.688 208.293 24.5513C208.398 24.41 208.45 24.2505 208.45 24.0728ZM214.896 18.6792V19.8823H210.727V18.6792H214.896ZM211.93 16.8677H213.577V24.0317C213.577 24.2596 213.609 24.4351 213.673 24.5581C213.741 24.6766 213.835 24.7563 213.953 24.7974C214.072 24.8384 214.211 24.8589 214.37 24.8589C214.484 24.8589 214.593 24.8521 214.698 24.8384C214.803 24.8247 214.887 24.811 214.951 24.7974L214.958 26.0552C214.821 26.0962 214.662 26.1326 214.479 26.1646C214.302 26.1965 214.097 26.2124 213.864 26.2124C213.486 26.2124 213.151 26.1463 212.859 26.0142C212.568 25.8774 212.34 25.6564 212.176 25.3511C212.012 25.0457 211.93 24.6401 211.93 24.1343V16.8677ZM220.338 24.5923V21.0649C220.338 20.8006 220.29 20.5728 220.194 20.3813C220.099 20.1899 219.953 20.0418 219.757 19.937C219.565 19.8322 219.324 19.7798 219.032 19.7798C218.763 19.7798 218.531 19.8254 218.335 19.9165C218.139 20.0076 217.986 20.1307 217.877 20.2856C217.768 20.4406 217.713 20.616 217.713 20.812H216.072C216.072 20.5203 216.143 20.2378 216.284 19.9644C216.425 19.6909 216.631 19.4471 216.899 19.2329C217.168 19.0187 217.49 18.8501 217.863 18.7271C218.237 18.604 218.656 18.5425 219.121 18.5425C219.677 18.5425 220.169 18.6359 220.598 18.8228C221.031 19.0096 221.37 19.2922 221.616 19.6704C221.867 20.0441 221.992 20.5135 221.992 21.0786V24.3667C221.992 24.7039 222.015 25.007 222.061 25.2759C222.111 25.5402 222.181 25.7703 222.272 25.9663V26.0757H220.584C220.507 25.8979 220.445 25.6724 220.399 25.3989C220.358 25.1209 220.338 24.8521 220.338 24.5923ZM220.577 21.5776L220.591 22.5962H219.408C219.103 22.5962 218.834 22.6258 218.602 22.6851C218.369 22.7397 218.175 22.8218 218.021 22.9312C217.866 23.0405 217.749 23.1727 217.672 23.3276C217.594 23.4826 217.556 23.658 217.556 23.854C217.556 24.05 217.601 24.23 217.692 24.394C217.784 24.5535 217.916 24.6789 218.089 24.77C218.267 24.8612 218.481 24.9067 218.731 24.9067C219.069 24.9067 219.363 24.8384 219.613 24.7017C219.868 24.5604 220.069 24.3895 220.215 24.189C220.361 23.9839 220.438 23.7902 220.447 23.6079L220.98 24.3394C220.926 24.5262 220.832 24.7267 220.7 24.9409C220.568 25.1551 220.395 25.3602 220.181 25.5562C219.971 25.7476 219.718 25.9048 219.422 26.0278C219.13 26.1509 218.793 26.2124 218.41 26.2124C217.927 26.2124 217.496 26.1167 217.118 25.9253C216.74 25.7293 216.444 25.4673 216.229 25.1392C216.015 24.8065 215.908 24.4305 215.908 24.0112C215.908 23.6193 215.981 23.2729 216.127 22.9722C216.277 22.6668 216.496 22.4116 216.783 22.2065C217.075 22.0015 217.43 21.8465 217.85 21.7417C218.269 21.6323 218.747 21.5776 219.285 21.5776H220.577ZM225.349 20.2583V26.0757H223.701V18.6792H225.253L225.349 20.2583ZM225.055 22.104L224.521 22.0972C224.526 21.5731 224.599 21.0923 224.74 20.6548C224.886 20.2173 225.087 19.8413 225.342 19.5269C225.602 19.2124 225.911 18.9709 226.271 18.8022C226.632 18.6291 227.033 18.5425 227.475 18.5425C227.83 18.5425 228.151 18.5926 228.438 18.6929C228.73 18.7886 228.979 18.9458 229.184 19.1646C229.393 19.3833 229.553 19.6681 229.662 20.019C229.771 20.3654 229.826 20.7915 229.826 21.2974V26.0757H228.172V21.2905C228.172 20.9351 228.119 20.6548 228.015 20.4497C227.914 20.2401 227.766 20.092 227.57 20.0054C227.379 19.9142 227.14 19.8687 226.853 19.8687C226.57 19.8687 226.317 19.9279 226.094 20.0464C225.87 20.1649 225.681 20.3267 225.526 20.5317C225.376 20.7368 225.26 20.9738 225.178 21.2427C225.096 21.5116 225.055 21.7987 225.055 22.104ZM234.898 18.6792V19.8823H230.729V18.6792H234.898ZM231.932 16.8677H233.579V24.0317C233.579 24.2596 233.611 24.4351 233.675 24.5581C233.743 24.6766 233.837 24.7563 233.955 24.7974C234.074 24.8384 234.213 24.8589 234.372 24.8589C234.486 24.8589 234.595 24.8521 234.7 24.8384C234.805 24.8247 234.889 24.811 234.953 24.7974L234.96 26.0552C234.823 26.0962 234.664 26.1326 234.481 26.1646C234.304 26.1965 234.099 26.2124 233.866 26.2124C233.488 26.2124 233.153 26.1463 232.861 26.0142C232.57 25.8774 232.342 25.6564 232.178 25.3511C232.014 25.0457 231.932 24.6401 231.932 24.1343V16.8677ZM236.238 25.2554C236.238 25.0002 236.325 24.786 236.498 24.6128C236.671 24.4351 236.906 24.3462 237.202 24.3462C237.503 24.3462 237.738 24.4351 237.906 24.6128C238.079 24.786 238.166 25.0002 238.166 25.2554C238.166 25.5106 238.079 25.7248 237.906 25.8979C237.738 26.0711 237.503 26.1577 237.202 26.1577C236.906 26.1577 236.671 26.0711 236.498 25.8979C236.325 25.7248 236.238 25.5106 236.238 25.2554ZM29.5879 34.2788V35.6392H24.3037V34.2788H29.5879ZM24.7275 30.1226V40.0757H23.0117V30.1226H24.7275ZM30.9072 30.1226V40.0757H29.1982V30.1226H30.9072ZM32.4727 36.4595V36.3022C32.4727 35.769 32.5501 35.2746 32.7051 34.8188C32.86 34.3586 33.0833 33.9598 33.375 33.6226C33.6712 33.2808 34.0312 33.0164 34.4551 32.8296C34.8835 32.6382 35.3665 32.5425 35.9043 32.5425C36.4466 32.5425 36.9297 32.6382 37.3535 32.8296C37.7819 33.0164 38.1442 33.2808 38.4404 33.6226C38.7367 33.9598 38.9622 34.3586 39.1172 34.8188C39.2721 35.2746 39.3496 35.769 39.3496 36.3022V36.4595C39.3496 36.9927 39.2721 37.4871 39.1172 37.9429C38.9622 38.3986 38.7367 38.7974 38.4404 39.1392C38.1442 39.4764 37.7842 39.7407 37.3604 39.9321C36.9365 40.119 36.4557 40.2124 35.918 40.2124C35.3757 40.2124 34.8903 40.119 34.4619 39.9321C34.0381 39.7407 33.6781 39.4764 33.3818 39.1392C33.0856 38.7974 32.86 38.3986 32.7051 37.9429C32.5501 37.4871 32.4727 36.9927 32.4727 36.4595ZM34.1201 36.3022V36.4595C34.1201 36.7922 34.1543 37.1066 34.2227 37.4028C34.291 37.6991 34.3981 37.9588 34.5439 38.1821C34.6898 38.4054 34.8766 38.5809 35.1045 38.7085C35.3324 38.8361 35.6035 38.8999 35.918 38.8999C36.2233 38.8999 36.4876 38.8361 36.7109 38.7085C36.9388 38.5809 37.1257 38.4054 37.2715 38.1821C37.4173 37.9588 37.5244 37.6991 37.5928 37.4028C37.6657 37.1066 37.7021 36.7922 37.7021 36.4595V36.3022C37.7021 35.9741 37.6657 35.6642 37.5928 35.3726C37.5244 35.0763 37.415 34.8143 37.2646 34.5864C37.1188 34.3586 36.932 34.1808 36.7041 34.0532C36.4808 33.9211 36.2142 33.855 35.9043 33.855C35.5944 33.855 35.3255 33.9211 35.0977 34.0532C34.8743 34.1808 34.6898 34.3586 34.5439 34.5864C34.3981 34.8143 34.291 35.0763 34.2227 35.3726C34.1543 35.6642 34.1201 35.9741 34.1201 36.3022ZM42.7402 38.4351L44.4492 32.6792H45.502L45.2148 34.4019L43.4922 40.0757H42.5488L42.7402 38.4351ZM41.7354 32.6792L43.0684 38.4624L43.1777 40.0757H42.125L40.1221 32.6792H41.7354ZM47.1016 38.394L48.3936 32.6792H50L48.0039 40.0757H46.9512L47.1016 38.394ZM45.6797 32.6792L47.3682 38.3667L47.5801 40.0757H46.6367L44.8936 34.395L44.6064 32.6792H45.6797ZM57.6289 38.8999C57.8978 38.8999 58.1393 38.8475 58.3535 38.7427C58.5723 38.6333 58.7477 38.4829 58.8799 38.2915C59.0166 38.1001 59.0918 37.8791 59.1055 37.6284H60.6572C60.6481 38.1069 60.5068 38.5422 60.2334 38.9341C59.96 39.326 59.5977 39.6382 59.1465 39.8706C58.6953 40.0985 58.1963 40.2124 57.6494 40.2124C57.0843 40.2124 56.5921 40.1167 56.1729 39.9253C55.7536 39.7293 55.4049 39.4604 55.127 39.1187C54.849 38.7769 54.6393 38.3826 54.498 37.936C54.3613 37.4894 54.293 37.0109 54.293 36.5005V36.2612C54.293 35.7508 54.3613 35.2723 54.498 34.8257C54.6393 34.3745 54.849 33.978 55.127 33.6362C55.4049 33.2944 55.7536 33.0278 56.1729 32.8364C56.5921 32.6405 57.082 32.5425 57.6426 32.5425C58.235 32.5425 58.7546 32.661 59.2012 32.8979C59.6478 33.1304 59.9987 33.4562 60.2539 33.8755C60.5137 34.2902 60.6481 34.7733 60.6572 35.3247H59.1055C59.0918 35.0513 59.0234 34.8052 58.9004 34.5864C58.7819 34.3631 58.6133 34.1854 58.3945 34.0532C58.1803 33.9211 57.9229 33.855 57.6221 33.855C57.2894 33.855 57.0137 33.9233 56.7949 34.0601C56.5762 34.1922 56.4053 34.3745 56.2822 34.6069C56.1592 34.8348 56.0703 35.0923 56.0156 35.3794C55.9655 35.6619 55.9404 35.9559 55.9404 36.2612V36.5005C55.9404 36.8058 55.9655 37.1021 56.0156 37.3892C56.0658 37.6763 56.1523 37.9338 56.2754 38.1616C56.403 38.3849 56.5762 38.5649 56.7949 38.7017C57.0137 38.8338 57.2917 38.8999 57.6289 38.8999ZM66.0918 38.5923V35.0649C66.0918 34.8006 66.0439 34.5728 65.9482 34.3813C65.8525 34.1899 65.7067 34.0418 65.5107 33.937C65.3193 33.8322 65.0778 33.7798 64.7861 33.7798C64.5173 33.7798 64.2848 33.8254 64.0889 33.9165C63.8929 34.0076 63.7402 34.1307 63.6309 34.2856C63.5215 34.4406 63.4668 34.616 63.4668 34.812H61.8262C61.8262 34.5203 61.8968 34.2378 62.0381 33.9644C62.1794 33.6909 62.3844 33.4471 62.6533 33.2329C62.9222 33.0187 63.2435 32.8501 63.6172 32.7271C63.9909 32.604 64.4102 32.5425 64.875 32.5425C65.431 32.5425 65.9232 32.6359 66.3516 32.8228C66.7845 33.0096 67.124 33.2922 67.3701 33.6704C67.6208 34.0441 67.7461 34.5135 67.7461 35.0786V38.3667C67.7461 38.7039 67.7689 39.007 67.8145 39.2759C67.8646 39.5402 67.9352 39.7703 68.0264 39.9663V40.0757H66.3379C66.2604 39.8979 66.1989 39.6724 66.1533 39.3989C66.1123 39.1209 66.0918 38.8521 66.0918 38.5923ZM66.3311 35.5776L66.3447 36.5962H65.1621C64.8568 36.5962 64.5879 36.6258 64.3555 36.6851C64.123 36.7397 63.9294 36.8218 63.7744 36.9312C63.6195 37.0405 63.5033 37.1727 63.4258 37.3276C63.3483 37.4826 63.3096 37.658 63.3096 37.854C63.3096 38.05 63.3551 38.23 63.4463 38.394C63.5374 38.5535 63.6696 38.6789 63.8428 38.77C64.0205 38.8612 64.2347 38.9067 64.4854 38.9067C64.8226 38.9067 65.1165 38.8384 65.3672 38.7017C65.6224 38.5604 65.8229 38.3895 65.9688 38.189C66.1146 37.9839 66.1921 37.7902 66.2012 37.6079L66.7344 38.3394C66.6797 38.5262 66.5863 38.7267 66.4541 38.9409C66.3219 39.1551 66.1488 39.3602 65.9346 39.5562C65.7249 39.7476 65.472 39.9048 65.1758 40.0278C64.8841 40.1509 64.5469 40.2124 64.1641 40.2124C63.681 40.2124 63.2503 40.1167 62.8721 39.9253C62.4938 39.7293 62.1976 39.4673 61.9834 39.1392C61.7692 38.8065 61.6621 38.4305 61.6621 38.0112C61.6621 37.6193 61.735 37.2729 61.8809 36.9722C62.0312 36.6668 62.25 36.4116 62.5371 36.2065C62.8288 36.0015 63.1842 35.8465 63.6035 35.7417C64.0228 35.6323 64.5013 35.5776 65.0391 35.5776H66.3311ZM71.1025 34.2583V40.0757H69.4551V32.6792H71.0068L71.1025 34.2583ZM70.8086 36.104L70.2754 36.0972C70.2799 35.5731 70.3529 35.0923 70.4941 34.6548C70.64 34.2173 70.8405 33.8413 71.0957 33.5269C71.3555 33.2124 71.6654 32.9709 72.0254 32.8022C72.3854 32.6291 72.7865 32.5425 73.2285 32.5425C73.584 32.5425 73.9053 32.5926 74.1924 32.6929C74.484 32.7886 74.7324 32.9458 74.9375 33.1646C75.1471 33.3833 75.3066 33.6681 75.416 34.019C75.5254 34.3654 75.5801 34.7915 75.5801 35.2974V40.0757H73.9258V35.2905C73.9258 34.9351 73.8734 34.6548 73.7686 34.4497C73.6683 34.2401 73.5202 34.092 73.3242 34.0054C73.1328 33.9142 72.8936 33.8687 72.6064 33.8687C72.3239 33.8687 72.071 33.9279 71.8477 34.0464C71.6243 34.1649 71.4352 34.3267 71.2803 34.5317C71.1299 34.7368 71.0137 34.9738 70.9316 35.2427C70.8496 35.5116 70.8086 35.7987 70.8086 36.104ZM82.7441 30.1226V40.0757H81.0283V30.1226H82.7441ZM89.8467 34.1831V40.0757H88.1992V32.6792H89.751L89.8467 34.1831ZM89.5801 36.104L89.0195 36.0972C89.0195 35.5868 89.0833 35.1151 89.2109 34.6821C89.3385 34.2492 89.5254 33.8732 89.7715 33.5542C90.0176 33.2306 90.3229 32.9823 90.6875 32.8091C91.0566 32.6313 91.4827 32.5425 91.9658 32.5425C92.3031 32.5425 92.6107 32.5926 92.8887 32.6929C93.1712 32.7886 93.415 32.9412 93.6201 33.1509C93.8298 33.3605 93.9893 33.6294 94.0986 33.9575C94.2126 34.2856 94.2695 34.6821 94.2695 35.147V40.0757H92.6221V35.2905C92.6221 34.9305 92.5674 34.6479 92.458 34.4429C92.3532 34.2378 92.2005 34.092 92 34.0054C91.804 33.9142 91.5693 33.8687 91.2959 33.8687C90.986 33.8687 90.7217 33.9279 90.5029 34.0464C90.2887 34.1649 90.1133 34.3267 89.9766 34.5317C89.8398 34.7368 89.7396 34.9738 89.6758 35.2427C89.612 35.5116 89.5801 35.7987 89.5801 36.104ZM94.167 35.6665L93.3945 35.8374C93.3945 35.3908 93.4561 34.9692 93.5791 34.5728C93.7067 34.1717 93.8913 33.8208 94.1328 33.52C94.3789 33.2147 94.682 32.9754 95.042 32.8022C95.402 32.6291 95.8145 32.5425 96.2793 32.5425C96.6576 32.5425 96.9948 32.5949 97.291 32.6997C97.5918 32.8 97.847 32.9595 98.0566 33.1782C98.2663 33.397 98.4258 33.6818 98.5352 34.0327C98.6445 34.3791 98.6992 34.7983 98.6992 35.2905V40.0757H97.0449V35.2837C97.0449 34.91 96.9902 34.6206 96.8809 34.4155C96.776 34.2104 96.6257 34.0692 96.4297 33.9917C96.2337 33.9097 95.999 33.8687 95.7256 33.8687C95.4704 33.8687 95.2448 33.9165 95.0488 34.0122C94.8574 34.1034 94.6956 34.2332 94.5635 34.4019C94.4313 34.5659 94.3311 34.755 94.2627 34.9692C94.1989 35.1834 94.167 35.4159 94.167 35.6665ZM104.564 38.5923V35.0649C104.564 34.8006 104.517 34.5728 104.421 34.3813C104.325 34.1899 104.179 34.0418 103.983 33.937C103.792 33.8322 103.55 33.7798 103.259 33.7798C102.99 33.7798 102.757 33.8254 102.562 33.9165C102.366 34.0076 102.213 34.1307 102.104 34.2856C101.994 34.4406 101.939 34.616 101.939 34.812H100.299C100.299 34.5203 100.369 34.2378 100.511 33.9644C100.652 33.6909 100.857 33.4471 101.126 33.2329C101.395 33.0187 101.716 32.8501 102.09 32.7271C102.464 32.604 102.883 32.5425 103.348 32.5425C103.904 32.5425 104.396 32.6359 104.824 32.8228C105.257 33.0096 105.597 33.2922 105.843 33.6704C106.093 34.0441 106.219 34.5135 106.219 35.0786V38.3667C106.219 38.7039 106.242 39.007 106.287 39.2759C106.337 39.5402 106.408 39.7703 106.499 39.9663V40.0757H104.811C104.733 39.8979 104.672 39.6724 104.626 39.3989C104.585 39.1209 104.564 38.8521 104.564 38.5923ZM104.804 35.5776L104.817 36.5962H103.635C103.329 36.5962 103.061 36.6258 102.828 36.6851C102.596 36.7397 102.402 36.8218 102.247 36.9312C102.092 37.0405 101.976 37.1727 101.898 37.3276C101.821 37.4826 101.782 37.658 101.782 37.854C101.782 38.05 101.828 38.23 101.919 38.394C102.01 38.5535 102.142 38.6789 102.315 38.77C102.493 38.8612 102.707 38.9067 102.958 38.9067C103.295 38.9067 103.589 38.8384 103.84 38.7017C104.095 38.5604 104.296 38.3895 104.441 38.189C104.587 37.9839 104.665 37.7902 104.674 37.6079L105.207 38.3394C105.152 38.5262 105.059 38.7267 104.927 38.9409C104.795 39.1551 104.621 39.3602 104.407 39.5562C104.198 39.7476 103.945 39.9048 103.648 40.0278C103.357 40.1509 103.02 40.2124 102.637 40.2124C102.154 40.2124 101.723 40.1167 101.345 39.9253C100.966 39.7293 100.67 39.4673 100.456 39.1392C100.242 38.8065 100.135 38.4305 100.135 38.0112C100.135 37.6193 100.208 37.2729 100.354 36.9722C100.504 36.6668 100.723 36.4116 101.01 36.2065C101.301 36.0015 101.657 35.8465 102.076 35.7417C102.495 35.6323 102.974 35.5776 103.512 35.5776H104.804ZM109.603 29.5757V40.0757H107.948V29.5757H109.603ZM114.196 32.6792L110.977 36.2476L109.213 38.0522L108.782 36.6577L110.115 35.0103L112.207 32.6792H114.196ZM112.562 40.0757L110.163 36.603L111.202 35.4478L114.47 40.0757H112.562ZM118.366 40.2124C117.819 40.2124 117.325 40.1235 116.883 39.9458C116.445 39.7635 116.072 39.5106 115.762 39.187C115.456 38.8634 115.222 38.4829 115.058 38.0454C114.894 37.6079 114.812 37.1362 114.812 36.6304V36.3569C114.812 35.7782 114.896 35.2541 115.064 34.7847C115.233 34.3153 115.468 33.9142 115.769 33.5815C116.069 33.2443 116.425 32.9868 116.835 32.8091C117.245 32.6313 117.689 32.5425 118.168 32.5425C118.697 32.5425 119.159 32.6313 119.556 32.8091C119.952 32.9868 120.28 33.2375 120.54 33.561C120.804 33.88 121 34.2606 121.128 34.7026C121.26 35.1447 121.326 35.6323 121.326 36.1655V36.8696H115.611V35.687H119.699V35.5571C119.69 35.2609 119.631 34.9829 119.521 34.7231C119.417 34.4634 119.255 34.2537 119.036 34.0942C118.817 33.9347 118.526 33.855 118.161 33.855C117.888 33.855 117.644 33.9142 117.43 34.0327C117.22 34.1466 117.045 34.313 116.903 34.5317C116.762 34.7505 116.653 35.0148 116.575 35.3247C116.502 35.63 116.466 35.9741 116.466 36.3569V36.6304C116.466 36.9539 116.509 37.2547 116.596 37.5327C116.687 37.8062 116.819 38.0454 116.992 38.2505C117.165 38.4556 117.375 38.6174 117.621 38.7358C117.867 38.8498 118.147 38.9067 118.462 38.9067C118.858 38.9067 119.212 38.827 119.521 38.6675C119.831 38.508 120.1 38.2824 120.328 37.9907L121.196 38.8315C121.037 39.064 120.829 39.2873 120.574 39.5015C120.319 39.7111 120.007 39.882 119.638 40.0142C119.273 40.1463 118.849 40.2124 118.366 40.2124ZM128.244 39.269L130.254 32.6792H132.018L129.051 41.2036C128.982 41.3859 128.894 41.5841 128.784 41.7983C128.675 42.0125 128.531 42.2153 128.354 42.4067C128.18 42.6027 127.964 42.7599 127.704 42.8784C127.444 43.0015 127.13 43.063 126.761 43.063C126.615 43.063 126.474 43.0493 126.337 43.022C126.205 42.9992 126.079 42.9741 125.961 42.9468L125.954 41.689C126 41.6935 126.054 41.6981 126.118 41.7026C126.187 41.7072 126.241 41.7095 126.282 41.7095C126.556 41.7095 126.784 41.6753 126.966 41.6069C127.148 41.5431 127.296 41.4383 127.41 41.2925C127.529 41.1466 127.629 40.9507 127.711 40.7046L128.244 39.269ZM127.109 32.6792L128.866 38.2163L129.16 39.9526L128.019 40.2466L125.332 32.6792H127.109ZM132.537 36.4595V36.3022C132.537 35.769 132.615 35.2746 132.77 34.8188C132.924 34.3586 133.148 33.9598 133.439 33.6226C133.736 33.2808 134.096 33.0164 134.52 32.8296C134.948 32.6382 135.431 32.5425 135.969 32.5425C136.511 32.5425 136.994 32.6382 137.418 32.8296C137.846 33.0164 138.209 33.2808 138.505 33.6226C138.801 33.9598 139.027 34.3586 139.182 34.8188C139.337 35.2746 139.414 35.769 139.414 36.3022V36.4595C139.414 36.9927 139.337 37.4871 139.182 37.9429C139.027 38.3986 138.801 38.7974 138.505 39.1392C138.209 39.4764 137.849 39.7407 137.425 39.9321C137.001 40.119 136.52 40.2124 135.982 40.2124C135.44 40.2124 134.955 40.119 134.526 39.9321C134.103 39.7407 133.743 39.4764 133.446 39.1392C133.15 38.7974 132.924 38.3986 132.77 37.9429C132.615 37.4871 132.537 36.9927 132.537 36.4595ZM134.185 36.3022V36.4595C134.185 36.7922 134.219 37.1066 134.287 37.4028C134.355 37.6991 134.463 37.9588 134.608 38.1821C134.754 38.4054 134.941 38.5809 135.169 38.7085C135.397 38.8361 135.668 38.8999 135.982 38.8999C136.288 38.8999 136.552 38.8361 136.775 38.7085C137.003 38.5809 137.19 38.4054 137.336 38.1821C137.482 37.9588 137.589 37.6991 137.657 37.4028C137.73 37.1066 137.767 36.7922 137.767 36.4595V36.3022C137.767 35.9741 137.73 35.6642 137.657 35.3726C137.589 35.0763 137.479 34.8143 137.329 34.5864C137.183 34.3586 136.996 34.1808 136.769 34.0532C136.545 33.9211 136.279 33.855 135.969 33.855C135.659 33.855 135.39 33.9211 135.162 34.0532C134.939 34.1808 134.754 34.3586 134.608 34.5864C134.463 34.8143 134.355 35.0763 134.287 35.3726C134.219 35.6642 134.185 35.9741 134.185 36.3022ZM145.245 38.3325V32.6792H146.899V40.0757H145.341L145.245 38.3325ZM145.478 36.7944L146.031 36.7808C146.031 37.2775 145.977 37.7355 145.867 38.1548C145.758 38.5695 145.589 38.9318 145.361 39.2417C145.133 39.547 144.842 39.7863 144.486 39.9595C144.131 40.1281 143.705 40.2124 143.208 40.2124C142.848 40.2124 142.518 40.16 142.217 40.0552C141.916 39.9504 141.656 39.7886 141.438 39.5698C141.223 39.3511 141.057 39.0662 140.938 38.7153C140.82 38.3644 140.761 37.9451 140.761 37.4575V32.6792H142.408V37.4712C142.408 37.7401 142.44 37.9657 142.504 38.1479C142.568 38.3257 142.654 38.4692 142.764 38.5786C142.873 38.688 143.001 38.7655 143.146 38.811C143.292 38.8566 143.447 38.8794 143.611 38.8794C144.081 38.8794 144.45 38.7882 144.719 38.606C144.992 38.4191 145.186 38.1685 145.3 37.854C145.418 37.5396 145.478 37.1864 145.478 36.7944ZM150.242 34.0874V40.0757H148.595V32.6792H150.167L150.242 34.0874ZM152.505 32.6313L152.491 34.1626C152.391 34.1444 152.282 34.1307 152.163 34.1216C152.049 34.1125 151.935 34.1079 151.821 34.1079C151.539 34.1079 151.29 34.1489 151.076 34.231C150.862 34.3084 150.682 34.4224 150.536 34.5728C150.395 34.7186 150.285 34.8963 150.208 35.106C150.131 35.3156 150.085 35.5503 150.071 35.8101L149.695 35.8374C149.695 35.3726 149.741 34.9419 149.832 34.5454C149.923 34.1489 150.06 33.8003 150.242 33.4995C150.429 33.1987 150.661 32.964 150.939 32.7954C151.222 32.6268 151.548 32.5425 151.917 32.5425C152.017 32.5425 152.124 32.5516 152.238 32.5698C152.357 32.5881 152.446 32.6086 152.505 32.6313ZM161.535 38.5444V29.5757H163.189V40.0757H161.692L161.535 38.5444ZM156.723 36.4595V36.3159C156.723 35.7554 156.789 35.245 156.921 34.7847C157.053 34.3198 157.244 33.9211 157.495 33.5884C157.746 33.2511 158.051 32.9937 158.411 32.8159C158.771 32.6336 159.177 32.5425 159.628 32.5425C160.075 32.5425 160.466 32.6291 160.804 32.8022C161.141 32.9754 161.428 33.2238 161.665 33.5474C161.902 33.8664 162.091 34.2492 162.232 34.6958C162.374 35.1379 162.474 35.63 162.533 36.1724V36.6304C162.474 37.159 162.374 37.6421 162.232 38.0796C162.091 38.5171 161.902 38.8953 161.665 39.2144C161.428 39.5334 161.139 39.7795 160.797 39.9526C160.46 40.1258 160.065 40.2124 159.614 40.2124C159.168 40.2124 158.764 40.119 158.404 39.9321C158.049 39.7453 157.746 39.4832 157.495 39.146C157.244 38.8088 157.053 38.4123 156.921 37.9565C156.789 37.4963 156.723 36.9972 156.723 36.4595ZM158.37 36.3159V36.4595C158.37 36.7967 158.4 37.1112 158.459 37.4028C158.523 37.6945 158.621 37.952 158.753 38.1753C158.885 38.394 159.056 38.5672 159.266 38.6948C159.48 38.8179 159.735 38.8794 160.031 38.8794C160.405 38.8794 160.713 38.7974 160.954 38.6333C161.196 38.4692 161.385 38.2482 161.521 37.9702C161.663 37.6877 161.758 37.3732 161.809 37.0269V35.7896C161.781 35.5207 161.724 35.27 161.638 35.0376C161.556 34.8052 161.444 34.6024 161.303 34.4292C161.161 34.2515 160.986 34.1147 160.776 34.019C160.571 33.9188 160.327 33.8687 160.045 33.8687C159.744 33.8687 159.489 33.9325 159.279 34.0601C159.07 34.1877 158.896 34.3631 158.76 34.5864C158.628 34.8097 158.53 35.0695 158.466 35.3657C158.402 35.6619 158.37 35.9787 158.37 36.3159ZM169.082 38.5923V35.0649C169.082 34.8006 169.034 34.5728 168.938 34.3813C168.843 34.1899 168.697 34.0418 168.501 33.937C168.31 33.8322 168.068 33.7798 167.776 33.7798C167.507 33.7798 167.275 33.8254 167.079 33.9165C166.883 34.0076 166.73 34.1307 166.621 34.2856C166.512 34.4406 166.457 34.616 166.457 34.812H164.816C164.816 34.5203 164.887 34.2378 165.028 33.9644C165.17 33.6909 165.375 33.4471 165.644 33.2329C165.912 33.0187 166.234 32.8501 166.607 32.7271C166.981 32.604 167.4 32.5425 167.865 32.5425C168.421 32.5425 168.913 32.6359 169.342 32.8228C169.775 33.0096 170.114 33.2922 170.36 33.6704C170.611 34.0441 170.736 34.5135 170.736 35.0786V38.3667C170.736 38.7039 170.759 39.007 170.805 39.2759C170.855 39.5402 170.925 39.7703 171.017 39.9663V40.0757H169.328C169.251 39.8979 169.189 39.6724 169.144 39.3989C169.103 39.1209 169.082 38.8521 169.082 38.5923ZM169.321 35.5776L169.335 36.5962H168.152C167.847 36.5962 167.578 36.6258 167.346 36.6851C167.113 36.7397 166.92 36.8218 166.765 36.9312C166.61 37.0405 166.493 37.1727 166.416 37.3276C166.339 37.4826 166.3 37.658 166.3 37.854C166.3 38.05 166.345 38.23 166.437 38.394C166.528 38.5535 166.66 38.6789 166.833 38.77C167.011 38.8612 167.225 38.9067 167.476 38.9067C167.813 38.9067 168.107 38.8384 168.357 38.7017C168.613 38.5604 168.813 38.3895 168.959 38.189C169.105 37.9839 169.182 37.7902 169.191 37.6079L169.725 38.3394C169.67 38.5262 169.576 38.7267 169.444 38.9409C169.312 39.1551 169.139 39.3602 168.925 39.5562C168.715 39.7476 168.462 39.9048 168.166 40.0278C167.874 40.1509 167.537 40.2124 167.154 40.2124C166.671 40.2124 166.241 40.1167 165.862 39.9253C165.484 39.7293 165.188 39.4673 164.974 39.1392C164.759 38.8065 164.652 38.4305 164.652 38.0112C164.652 37.6193 164.725 37.2729 164.871 36.9722C165.021 36.6668 165.24 36.4116 165.527 36.2065C165.819 36.0015 166.174 35.8465 166.594 35.7417C167.013 35.6323 167.492 35.5776 168.029 35.5776H169.321ZM174.496 39.269L176.506 32.6792H178.27L175.303 41.2036C175.234 41.3859 175.146 41.5841 175.036 41.7983C174.927 42.0125 174.783 42.2153 174.605 42.4067C174.432 42.6027 174.216 42.7599 173.956 42.8784C173.696 43.0015 173.382 43.063 173.013 43.063C172.867 43.063 172.726 43.0493 172.589 43.022C172.457 42.9992 172.331 42.9741 172.213 42.9468L172.206 41.689C172.252 41.6935 172.306 41.6981 172.37 41.7026C172.438 41.7072 172.493 41.7095 172.534 41.7095C172.808 41.7095 173.035 41.6753 173.218 41.6069C173.4 41.5431 173.548 41.4383 173.662 41.2925C173.781 41.1466 173.881 40.9507 173.963 40.7046L174.496 39.269ZM173.361 32.6792L175.118 38.2163L175.412 39.9526L174.271 40.2466L171.584 32.6792H173.361ZM182.706 29.5757H184.354V38.4966L184.196 40.0757H182.706V29.5757ZM189.18 36.3091V36.4526C189.18 36.9995 189.118 37.5031 188.995 37.9634C188.877 38.4191 188.694 38.8156 188.448 39.1528C188.207 39.4901 187.906 39.7521 187.546 39.939C187.19 40.1213 186.778 40.2124 186.309 40.2124C185.848 40.2124 185.447 40.1258 185.105 39.9526C184.764 39.7795 184.477 39.5334 184.244 39.2144C184.016 38.8953 183.832 38.5148 183.69 38.0728C183.549 37.6307 183.449 37.1431 183.39 36.6099V36.1519C183.449 35.6141 183.549 35.1265 183.69 34.689C183.832 34.2469 184.016 33.8664 184.244 33.5474C184.477 33.2238 184.761 32.9754 185.099 32.8022C185.44 32.6291 185.839 32.5425 186.295 32.5425C186.769 32.5425 187.186 32.6336 187.546 32.8159C187.91 32.9982 188.214 33.258 188.455 33.5952C188.697 33.9279 188.877 34.3244 188.995 34.7847C189.118 35.245 189.18 35.7531 189.18 36.3091ZM187.532 36.4526V36.3091C187.532 35.9764 187.505 35.6642 187.45 35.3726C187.396 35.0763 187.304 34.8166 187.177 34.5933C187.054 34.37 186.885 34.1945 186.671 34.0669C186.461 33.9347 186.199 33.8687 185.885 33.8687C185.593 33.8687 185.342 33.9188 185.133 34.019C184.923 34.1193 184.748 34.256 184.606 34.4292C184.465 34.6024 184.354 34.8029 184.271 35.0308C184.194 35.2586 184.142 35.5047 184.114 35.769V37.0063C184.155 37.3481 184.242 37.6626 184.374 37.9497C184.511 38.2323 184.702 38.4601 184.948 38.6333C185.194 38.8019 185.511 38.8862 185.898 38.8862C186.204 38.8862 186.461 38.8247 186.671 38.7017C186.881 38.5786 187.047 38.4077 187.17 38.189C187.298 37.9657 187.389 37.7059 187.443 37.4097C187.503 37.1134 187.532 36.7944 187.532 36.4526ZM193.835 40.2124C193.288 40.2124 192.794 40.1235 192.352 39.9458C191.914 39.7635 191.54 39.5106 191.23 39.187C190.925 38.8634 190.69 38.4829 190.526 38.0454C190.362 37.6079 190.28 37.1362 190.28 36.6304V36.3569C190.28 35.7782 190.365 35.2541 190.533 34.7847C190.702 34.3153 190.937 33.9142 191.237 33.5815C191.538 33.2443 191.894 32.9868 192.304 32.8091C192.714 32.6313 193.158 32.5425 193.637 32.5425C194.165 32.5425 194.628 32.6313 195.024 32.8091C195.421 32.9868 195.749 33.2375 196.009 33.561C196.273 33.88 196.469 34.2606 196.597 34.7026C196.729 35.1447 196.795 35.6323 196.795 36.1655V36.8696H191.08V35.687H195.168V35.5571C195.159 35.2609 195.1 34.9829 194.99 34.7231C194.885 34.4634 194.724 34.2537 194.505 34.0942C194.286 33.9347 193.994 33.855 193.63 33.855C193.356 33.855 193.113 33.9142 192.898 34.0327C192.689 34.1466 192.513 34.313 192.372 34.5317C192.231 34.7505 192.121 35.0148 192.044 35.3247C191.971 35.63 191.935 35.9741 191.935 36.3569V36.6304C191.935 36.9539 191.978 37.2547 192.064 37.5327C192.156 37.8062 192.288 38.0454 192.461 38.2505C192.634 38.4556 192.844 38.6174 193.09 38.7358C193.336 38.8498 193.616 38.9067 193.931 38.9067C194.327 38.9067 194.68 38.827 194.99 38.6675C195.3 38.508 195.569 38.2824 195.797 37.9907L196.665 38.8315C196.506 39.064 196.298 39.2873 196.043 39.5015C195.788 39.7111 195.476 39.882 195.106 40.0142C194.742 40.1463 194.318 40.2124 193.835 40.2124ZM201.471 32.6792V33.8823H197.301V32.6792H201.471ZM198.504 30.8677H200.151V38.0317C200.151 38.2596 200.183 38.4351 200.247 38.5581C200.315 38.6766 200.409 38.7563 200.527 38.7974C200.646 38.8384 200.785 38.8589 200.944 38.8589C201.058 38.8589 201.168 38.8521 201.272 38.8384C201.377 38.8247 201.462 38.811 201.525 38.7974L201.532 40.0552C201.396 40.0962 201.236 40.1326 201.054 40.1646C200.876 40.1965 200.671 40.2124 200.438 40.2124C200.06 40.2124 199.725 40.1463 199.434 40.0142C199.142 39.8774 198.914 39.6564 198.75 39.3511C198.586 39.0457 198.504 38.6401 198.504 38.1343V30.8677ZM206.133 32.6792V33.8823H201.963V32.6792H206.133ZM203.166 30.8677H204.813V38.0317C204.813 38.2596 204.845 38.4351 204.909 38.5581C204.978 38.6766 205.071 38.7563 205.189 38.7974C205.308 38.8384 205.447 38.8589 205.606 38.8589C205.72 38.8589 205.83 38.8521 205.935 38.8384C206.039 38.8247 206.124 38.811 206.188 38.7974L206.194 40.0552C206.058 40.0962 205.898 40.1326 205.716 40.1646C205.538 40.1965 205.333 40.2124 205.101 40.2124C204.722 40.2124 204.387 40.1463 204.096 40.0142C203.804 39.8774 203.576 39.6564 203.412 39.3511C203.248 39.0457 203.166 38.6401 203.166 38.1343V30.8677ZM210.665 40.2124C210.118 40.2124 209.624 40.1235 209.182 39.9458C208.744 39.7635 208.37 39.5106 208.061 39.187C207.755 38.8634 207.521 38.4829 207.356 38.0454C207.192 37.6079 207.11 37.1362 207.11 36.6304V36.3569C207.11 35.7782 207.195 35.2541 207.363 34.7847C207.532 34.3153 207.767 33.9142 208.067 33.5815C208.368 33.2443 208.724 32.9868 209.134 32.8091C209.544 32.6313 209.988 32.5425 210.467 32.5425C210.995 32.5425 211.458 32.6313 211.854 32.8091C212.251 32.9868 212.579 33.2375 212.839 33.561C213.103 33.88 213.299 34.2606 213.427 34.7026C213.559 35.1447 213.625 35.6323 213.625 36.1655V36.8696H207.91V35.687H211.998V35.5571C211.989 35.2609 211.93 34.9829 211.82 34.7231C211.715 34.4634 211.554 34.2537 211.335 34.0942C211.116 33.9347 210.825 33.855 210.46 33.855C210.187 33.855 209.943 33.9142 209.729 34.0327C209.519 34.1466 209.343 34.313 209.202 34.5317C209.061 34.7505 208.951 35.0148 208.874 35.3247C208.801 35.63 208.765 35.9741 208.765 36.3569V36.6304C208.765 36.9539 208.808 37.2547 208.895 37.5327C208.986 37.8062 209.118 38.0454 209.291 38.2505C209.464 38.4556 209.674 38.6174 209.92 38.7358C210.166 38.8498 210.446 38.9067 210.761 38.9067C211.157 38.9067 211.51 38.827 211.82 38.6675C212.13 38.508 212.399 38.2824 212.627 37.9907L213.495 38.8315C213.336 39.064 213.128 39.2873 212.873 39.5015C212.618 39.7111 212.306 39.882 211.937 40.0142C211.572 40.1463 211.148 40.2124 210.665 40.2124ZM216.564 34.0874V40.0757H214.917V32.6792H216.489L216.564 34.0874ZM218.827 32.6313L218.813 34.1626C218.713 34.1444 218.604 34.1307 218.485 34.1216C218.371 34.1125 218.257 34.1079 218.144 34.1079C217.861 34.1079 217.613 34.1489 217.398 34.231C217.184 34.3084 217.004 34.4224 216.858 34.5728C216.717 34.7186 216.608 34.8963 216.53 35.106C216.453 35.3156 216.407 35.5503 216.394 35.8101L216.018 35.8374C216.018 35.3726 216.063 34.9419 216.154 34.5454C216.245 34.1489 216.382 33.8003 216.564 33.4995C216.751 33.1987 216.984 32.964 217.262 32.7954C217.544 32.6268 217.87 32.5425 218.239 32.5425C218.34 32.5425 218.447 32.5516 218.561 32.5698C218.679 32.5881 218.768 32.6086 218.827 32.6313ZM222.942 37.1431H221.418C221.423 36.7192 221.459 36.3638 221.527 36.0767C221.596 35.785 221.71 35.5207 221.869 35.2837C222.033 35.0467 222.25 34.7961 222.519 34.5317C222.728 34.3312 222.917 34.1421 223.086 33.9644C223.255 33.7821 223.389 33.5907 223.489 33.3901C223.59 33.1851 223.64 32.9504 223.64 32.686C223.64 32.3989 223.592 32.1551 223.496 31.9546C223.4 31.7541 223.259 31.6014 223.072 31.4966C222.89 31.3918 222.662 31.3394 222.389 31.3394C222.161 31.3394 221.947 31.3849 221.746 31.4761C221.546 31.5627 221.384 31.6994 221.261 31.8862C221.138 32.0685 221.072 32.3101 221.062 32.6108H219.415C219.424 32.0366 219.561 31.5535 219.825 31.1616C220.09 30.7697 220.445 30.4757 220.892 30.2798C221.338 30.0838 221.837 29.9858 222.389 29.9858C222.999 29.9858 223.521 30.0907 223.954 30.3003C224.387 30.5054 224.717 30.8062 224.945 31.2026C225.178 31.5946 225.294 32.0685 225.294 32.6245C225.294 33.0256 225.214 33.3901 225.055 33.7183C224.895 34.0418 224.688 34.3449 224.433 34.6274C224.177 34.9054 223.902 35.1834 223.605 35.4614C223.35 35.6938 223.177 35.9468 223.086 36.2202C222.995 36.4891 222.947 36.7967 222.942 37.1431ZM221.281 39.2759C221.281 39.0298 221.366 38.8224 221.534 38.6538C221.703 38.4806 221.933 38.394 222.225 38.394C222.516 38.394 222.746 38.4806 222.915 38.6538C223.084 38.8224 223.168 39.0298 223.168 39.2759C223.168 39.522 223.084 39.7316 222.915 39.9048C222.746 40.0734 222.516 40.1577 222.225 40.1577C221.933 40.1577 221.703 40.0734 221.534 39.9048C221.366 39.7316 221.281 39.522 221.281 39.2759Z" fill="white"/>
<defs>
<filter id="filter0_d_56_11" x="0" y="0" width="265" height="63.6403" filterUnits="userSpaceOnUse" color-interpolation-filters="sRGB">
<feFlood flood-opacity="0" result="BackgroundImageFix"/>
<feColorMatrix in="SourceAlpha" type="matrix" values="0 0 0 0 0 0 0 0 0 0 0 0 0 0 0 0 0 0 127 0" result="hardAlpha"/>
<feOffset dy="4"/>
<feGaussianBlur stdDeviation="2"/>
<feComposite in2="hardAlpha" operator="out"/>
<feColorMatrix type="matrix" values="0 0 0 0 0.114965 0 0 0 0 0.295496 0 0 0 0 0.320833 0 0 0 0.25 0"/>
<feBlend mode="normal" in2="BackgroundImageFix" result="effect1_dropShadow_56_11"/>
<feBlend mode="normal" in="SourceGraphic" in2="effect1_dropShadow_56_11" result="shape"/>
</filter>
</defs>
</svg>
